<?xml version="1.0" ?>
<!-- Uploaded to: SVG Repo, www.svgrepo.com, Generator: SVG Repo Mixer Tools -->
<svg width="800px" height="800px" viewBox="0 0 120 120" id="Layer_1" version="1.1" xml:space="preserve" xmlns="http://www.w3.org/2000/svg" xmlns:xlink="http://www.w3.org/1999/xlink">
<style type="text/css">
	.st0{fill:#FCF0DE;}
	.st1{fill:#42E295;}
	.st2{fill:#39C47E;}
	.st3{fill:#FFD484;}
</style>
<g>
<path class="st0" d="M23.4,100.7h73.1c4.1,0,7.3-3.3,7.3-7.3V31.1c0-4.1-3.3-7.3-7.3-7.3H23.4c-4.1,0-7.3,3.3-7.3,7.3v62.2   C16.1,97.4,19.4,100.7,23.4,100.7z"/>
<path class="st1" d="M103.9,30.8v15.1H16.1V30.8c0-3.9,3.2-7,7-7h73.7C100.7,23.7,103.9,26.9,103.9,30.8z"/>
<g>
<path class="st2" d="M38.9,31.2c-2,0-3.6,1.6-3.6,3.6s1.6,3.6,3.6,3.6s3.6-1.6,3.6-3.6S40.9,31.2,38.9,31.2z"/>
<path class="st2" d="M81.1,31.2c-2,0-3.6,1.6-3.6,3.6s1.6,3.6,3.6,3.6c2,0,3.6-1.6,3.6-3.6S83.1,31.2,81.1,31.2z"/>
</g>
<g>
<path class="st3" d="M39.9,19.3h-2c-0.6,0-1.1,0.5-1.1,1.1v13.9c0,0.6,0.5,1.1,1.1,1.1h2c0.6,0,1.1-0.5,1.1-1.1V20.5    C41.1,19.8,40.5,19.3,39.9,19.3z"/>
<path class="st3" d="M82.1,19.3h-2c-0.6,0-1.1,0.5-1.1,1.1v13.9c0,0.6,0.5,1.1,1.1,1.1h2c0.6,0,1.1-0.5,1.1-1.1V20.5    C83.2,19.8,82.7,19.3,82.1,19.3z"/>
</g>
<path class="st3" d="M60.9,56.7l5,10.2c0.1,0.3,0.4,0.5,0.7,0.5l11.3,1.6c0.8,0.1,1.1,1.1,0.5,1.6l-8.1,7.9   c-0.2,0.2-0.3,0.5-0.3,0.9l1.9,11.2c0.1,0.8-0.7,1.4-1.4,1l-10.1-5.3c-0.3-0.1-0.6-0.1-0.9,0l-10.1,5.3c-0.7,0.4-1.5-0.2-1.4-1   L50,79.5c0.1-0.3,0-0.6-0.3-0.9l-8.1-7.9c-0.6-0.6-0.3-1.5,0.5-1.6l11.3-1.6c0.3,0,0.6-0.2,0.7-0.5l5-10.2   C59.5,56,60.5,56,60.9,56.7z"/>
</g>
</svg>